<svg fill="none" viewBox="0 0 20 20">
  <path
    d="M7.356 1.635c1.09-2.18 4.198-2.18 5.288 0l7.04 14.086c.983 1.966-.446 4.279-2.643 4.279H2.96C.762 20-.667 17.687.316 15.72l7.04-14.085z"
    fill="#E6A900"
  />
  <path
    d="M10.84 13.185H9.174l-.349-6.68h2.366l-.35 6.68zm-2.043 2.338c0-.383.102-.673.307-.869.206-.196.504-.294.896-.294.378 0 .67.1.875.301.21.2.315.488.315.862 0 .36-.105.644-.315.854-.21.205-.501.308-.875.308-.383 0-.679-.1-.889-.301-.21-.205-.314-.492-.314-.861z"
    fill="#fff"
  />
</svg>
