<svg width="24" height="22" viewBox="0 0 24 22" fill="none" xmlns="http://www.w3.org/2000/svg">
<path d="M10.3561 1.644C8.91716 0.487098 7.32235 0.241831 5.89236 0.521172C4.486 0.795895 3.24257 1.57424 2.4153 2.46951L2.41328 2.47172C1.48603 3.48326 0.577479 4.74735 0.506788 6.61731C0.464414 7.54844 0.590956 8.89462 1.31894 9.89874L1.32061 9.90102C2.10222 10.9706 2.5557 11.6068 2.78142 12.2251C3.03028 12.9097 3.03611 13.5936 3.04433 14.5587L3.04617 14.7643C3.05185 15.7584 3.26173 17.1212 3.76659 18.3603C4.2654 19.5845 5.1128 20.8294 6.48387 21.3412L6.51894 21.3542L6.55514 21.3638C7.36223 21.5763 8.10694 21.4979 8.66767 20.9732C9.16325 20.5094 9.3699 19.8174 9.48605 19.1916C9.59264 18.6174 9.64588 17.9494 9.69828 17.292L9.71837 17.0416C9.77991 16.2839 9.85081 15.527 10 14.8132C10.4195 12.8409 11.0063 12.4862 11.2864 12.4014C11.9628 12.2273 12.3882 12.3159 12.676 12.4799C12.9825 12.6547 13.2506 12.9821 13.474 13.4928C13.934 14.5444 14.0656 16.0288 14.1788 17.3715C14.2914 18.7077 14.5734 19.9151 15.1068 20.6863C15.3833 21.0862 15.7739 21.434 16.3011 21.5475C16.8333 21.662 17.3513 21.5051 17.8107 21.21C19.5111 20.124 20.4952 17.874 20.7632 14.8855C20.8912 13.4621 21.0384 12.8057 21.2593 12.2712C21.3722 11.998 21.5119 11.7386 21.7055 11.4051C21.7625 11.3068 21.825 11.2007 21.8925 11.0863C22.0479 10.8228 22.2297 10.5143 22.4305 10.1551C22.81 9.47914 23.424 8.25655 23.494 6.82514C23.5665 5.34161 23.0494 3.70133 21.299 2.27631C19.6181 0.911252 18.0558 0.415064 16.6623 0.489579C15.2808 0.563456 14.1766 1.1924 13.3877 1.86935L13.367 1.88716L13.3476 1.90643C12.5808 2.66811 12.2213 2.80917 11.9839 2.79917C11.7164 2.78791 11.2875 2.57934 10.4196 1.70127L10.3895 1.67082L10.3561 1.644ZM16.5261 4.20886C17.2784 4.20886 18.0398 4.43409 18.6433 4.97098C19.2519 5.51234 19.6285 6.30681 19.7228 7.30859C19.7616 7.72098 19.4588 8.08675 19.0464 8.12556C18.634 8.16438 18.2682 7.86153 18.2294 7.44914C18.1637 6.75091 17.9203 6.33539 17.6464 6.09174C17.3675 5.84364 16.9838 5.70886 16.5261 5.70886C16.1119 5.70886 15.7761 5.37308 15.7761 4.95886C15.7761 4.54465 16.1119 4.20886 16.5261 4.20886Z" fill="#201F1E"/>
</svg>
