<svg width="22" height="23" viewBox="0 0 22 23" fill="none" xmlns="http://www.w3.org/2000/svg">
<path d="M7.75 0.998047C6.7835 0.998047 6 1.78155 6 2.74805V6.99951H1.75C0.783502 6.99951 0 7.78301 0 8.74951V15.2495C0 16.216 0.783502 16.9995 1.75 16.9995H6V21.2511C6 22.2176 6.7835 23.0011 7.75 23.0011H14.25C15.2165 23.0011 16 22.2176 16 21.2511V16.9995H20.25C21.2165 16.9995 22 16.216 22 15.2495V8.74951C22 7.78301 21.2165 6.99951 20.25 6.99951H16V2.74805C16 1.78155 15.2165 0.998047 14.25 0.998047H7.75Z" fill="#201F1E"/>
</svg>
