<svg width="20" height="24" viewBox="0 0 20 24" fill="none" xmlns="http://www.w3.org/2000/svg">
<path d="M10 0V8C10 9.10457 10.8954 10 12 10H19.9989C19.9996 10.0261 20 10.0522 20 10.0784V21.6C20 22.9255 18.9255 24 17.6 24H2.4C1.07452 24 0 22.9255 0 21.6V2.4C0 1.07452 1.07452 0 2.4 0H10Z" fill="#201F1E"/>
<path d="M11.5 0.475094V8C11.5 8.27614 11.7239 8.5 12 8.5H19.5019C19.4109 8.37013 19.3082 8.24755 19.1945 8.13388L11.7636 0.702944C11.6809 0.620215 11.5927 0.544151 11.5 0.475094Z" fill="#201F1E"/>
</svg>
