<svg
  width="179"
  height="47"
  viewBox="0 0 179 47"
  fill="none"
  xmlns="http://www.w3.org/2000/svg"
>
  <path
    d="M84.8736 2V22H78.6632V14.2424H72.1801V22H66V2H72.1801V9.60606H78.6632V2H84.8736Z"
    fill="#007AC2"
  />
  <path
    d="M103.569 17.3636V22H87.0584V2H103.175V6.63636H93.2385V9.87879H101.176V14.1818H93.2385V17.3636H103.569Z"
    fill="#007AC2"
  />
  <path
    d="M143.706 17.3636V22H128.014V2H134.194V17.3636H143.706Z"
    fill="#007AC2"
  />
  <path
    d="M157.308 6.63636H150.947V22H144.766V6.63636H138.344V2H157.308V6.63636Z"
    fill="#007AC2"
  />
  <path
    d="M178 2V22H171.79V14.2424H165.306V22H159.126V2H165.306V9.60606H171.79V2H178Z"
    fill="#007AC2"
  />
  <path
    fill-rule="evenodd"
    clip-rule="evenodd"
    d="M111.381 18.8485H119.471L120.591 22H126.953L118.198 2H112.775L104.05 22H110.23L111.381 18.8485ZM112.472 13.8485L115.5 8L118.41 13.8485H112.472Z"
    fill="#007AC2"
  />
  <path d="M81 40.3636V45H66V25H72.055V40.3636H81Z" fill="#007AC2" />
  <path d="M89.055 45H83V25H89.055V45Z" fill="#007AC2" />
  <path
    d="M110 45.0382H102.906L97.5637 35.1291L96.3171 32.4018H96.2578L96.3765 36.3715V45.0382H91.0932V25.0382H97.7121L103.055 34.9473L104.331 37.6746H104.361L104.242 33.7049V25.0382H110V45.0382Z"
    fill="#007AC2"
  />
  <path
    d="M120.044 37L118.055 39.6061V45H112V25H118.055V33.1515L124.051 25H130.61L124.347 33.0303L131.085 45H124.229L120.044 37Z"
    fill="#007AC2"
  />
  <path
    fill-rule="evenodd"
    clip-rule="evenodd"
    d="M2 2V45H20.5252C32.1696 45 38.2549 33.9109 37.9918 22.9756C37.7364 12.3593 31.6403 2.00001 20.5252 2H2ZM14.703 14.5854V32.4146H17.8787C21.5838 32.4146 24.7595 27.8826 24.7595 23.5C24.7595 19.1174 21.0545 14.5854 17.8787 14.5854H14.703Z"
    stroke="#007AC2"
    stroke-width="2"
  />
  <path
    d="M57 2H58V1H57V2ZM32 23.2378L31 23.2393L32 23.2378ZM57 45V46H58V45H57ZM57 14.5854V15.5854H58V14.5854H57ZM57 32.4146H58V31.4146H57V32.4146ZM57 1C49.6379 1 43.1307 2.50324 38.4465 6.08665C33.7152 9.706 30.9884 15.3354 31 23.2393L33 23.2363C32.9891 15.8389 35.5123 10.8494 39.6616 7.67515C43.858 4.465 49.8621 3 57 3V1ZM57 44C49.3648 44 43.3875 42.405 39.3294 39.0831C35.3085 35.7916 33.011 30.6702 33 23.2363L31 23.2393C31.0117 31.1067 33.4642 36.8665 38.0626 40.6307C42.6238 44.3645 49.1352 46 57 46V44ZM58 14.5854V2H56V14.5854H58ZM58 45V32.4146H56V45H58ZM45 23.2378C45 21.0947 45.6664 19.2576 47.3677 17.9213C49.1155 16.5486 52.1029 15.5854 57 15.5854V13.5854C51.8971 13.5854 48.3845 14.5795 46.1323 16.3485C43.8336 18.154 43 20.6431 43 23.2378H45ZM57 31.4146C52.1289 31.4146 49.1489 30.3313 47.3981 28.8413C45.673 27.3733 45 25.3889 45 23.2378H43C43 25.8245 43.827 28.4285 46.1019 30.3645C48.3511 32.2785 51.8711 33.4146 57 33.4146V31.4146Z"
    fill="#DC3545"
  />
  <path d="M36 34C35 36 33.5 39 30.5 41.5" stroke="#007AC2" stroke-width="2" />
</svg>
