<svg width="50" height="50" fill="none" xmlns="http://www.w3.org/2000/svg"><path fill="#fff" d="M0 0h50v50H0z"/><path d="M43 31.7c-.5 0-.8.5-1 .8a1.1 1.1 0 0 1-1 .6.4.4 0 0 1-.4-.2l-.1-.2a.4.4 0 0 0-.8.2v.4c0 .2 0 .3-.3.3l-.2-.2V33a.6.6 0 0 1-.8.2c-.2 0-.2 0-.2.2v.4a.3.3 0 0 1-.1.3h-.2l-1.2.3a.2.2 0 0 1-.1 0l-.1-.2c0-.2 0-.4-.3-.4a.6.6 0 0 0-.6.6l-.1.7c0 .3-.2.3-.4.1l-.3-.3h-.2l-.1.2v.5l-.5.8-.2-.1V36l-.2-.4c-.1-.1-.2-.2-.1-.4 0-.1 0-.2-.2-.2a.6.6 0 0 1-.6-.3c0-.2-.2-.2-.3 0-.2.3-.3.3-.6 0-.2.3-.4.6-.7.7-.3.2-.4.2-.6-.1-.3-.2-.3-.2-.5 0l-.4.3a.7.7 0 0 0-.2.7c0 .1 0 .2.2.3l.2.4c0 .1 0 .2-.3.2l-.3-.2h-.4c-.1.1-.2.1-.2 0a.9.9 0 0 0-.9-.5l-.4-.1a.4.4 0 0 1-.2-.2l.1-.2.2-.2c0-.4.2-.4.5-.3 0-.3 0-.3-.3-.3l-.4.2V35l.2-.7-.1-.4h-.1l-.1.3a.7.7 0 0 1-.8.8c-.6.1-.6.1-.4.7a.8.8 0 0 1 0 .7l-.7 1.4v.1a.8.8 0 0 0-.2 1c.1.2 0 .4-.1.5a62.9 62.9 0 0 0-1.3 1.2h-.1v-.4c0-.3 0-.3-.4-.2l-.3.1-.3-.1v-.3l-.2-.1a.3.3 0 0 0-.2 0l-.2.8-.3 1a.3.3 0 0 1-.2.1l-.2-.2-.2-.4h-.3v.2c-.1.5-.5.5-.9.3l-.2-.2a.3.3 0 0 0-.3 0l-.4.5v1.1l-.2.3-.3-.2a1.4 1.4 0 0 1-.3-1 .4.4 0 0 0-.1-.3h-.3a.3.3 0 0 1-.4 0 .3.3 0 0 0-.2-.1 3 3 0 0 0-2.1 1.8.4.4 0 0 0 0 .3l.4.4a.4.4 0 0 1-.2.6h-.4a.7.7 0 0 0-.7.7v.3a1.2 1.2 0 0 1-.7 1.3 1 1 0 0 0-.7.7l-.4 1.5a6 6 0 0 1-.3.8.4.4 0 0 1-.5 0 4 4 0 0 1-.6-.2.8.8 0 0 1-.4-.7 1.7 1.7 0 0 0-.7-1.4 2.2 2.2 0 0 1-.9-1.8c0-3.5-.6-7-1-10.5L7 25a1 1 0 0 1 .9-1.2.4.4 0 0 1 .5.3l.1.5.3.2c.2 0 .2-.2.2-.3l.1-1c0-.4.3-.5.7-.4l.3.2h.3v-.4s0-.2-.2-.2a7.6 7.6 0 0 1-.3-.6.6.6 0 0 1 .2-.7l.5-.6c.2-.3.6-.5 1-.6a1 1 0 0 0 .7-1.1 1 1 0 0 1 .6-1 .7.7 0 0 0 .4-.8V17a1.2 1.2 0 0 1-.1-1.3l.1-.4a.5.5 0 0 0-.1-.7.3.3 0 0 1-.1-.4c.2-.8.6-1.6 1.2-2.1.4-.4.6-1 .6-1.4l.3-1.6c0-.4.2-.8.4-1.2A4420.3 4420.3 0 0 0 21.1 0h.7a1 1 0 0 1 .7 1 19.2 19.2 0 0 0 .2 1.2l.2.4.7.5a.6.6 0 0 0 .5 0c.6-.3 1.2-.5 1.9-.5l.3-.2a1 1 0 0 1 1-.3h.1c.4.1.5 0 .6-.3a.5.5 0 0 1 .5-.3 2.4 2.4 0 0 1 1.9.6l2.2 2.2.6.7a1.4 1.4 0 0 1 .5 1A596.3 596.3 0 0 0 35 18v2.1l-.1.5a.6.6 0 0 0 .4.6h.3a.4.4 0 0 1 .4.2 1.4 1.4 0 0 0 1.1.6l1 .2c.2 0 .3 0 .3.3l.1.4a.4.4 0 0 1-.2.5c-.2 0-.2.2 0 .3 0 .3.1.5.3.7V26l.4.8a.6.6 0 0 0 1 .2.8.8 0 0 1 1.1 0l.8 1a.5.5 0 0 1 0 .4.6.6 0 0 0 .1.6l.4.7c0 .3-.2.5-.5.4-.2 0-.4-.1-.5.1 0 .3 0 .5.4.5h.2c.6.1.9.3 1.1 1" fill="#647F3A"/></svg>
