<svg viewBox="0 0 431.077 136.727" xmlns="http://www.w3.org/2000/svg">
  <g>
    <g fill="#C56D29">
      <path
        d="M161.784.355c0-.098.067-.17.168-.17h2.018c.136 0 .22.051.272.17l2.916 6.578h.068l2.865-6.578c.051-.119.136-.17.271-.17h1.984c.102 0 .169.072.169.17v11.191c0 .101-.067.17-.169.17h-1.917a.162.162 0 01-.17-.17V5.052h-.067l-2.136 4.865c-.067.152-.17.22-.322.22h-1.17c-.152 0-.252-.068-.321-.22l-2.137-4.865h-.067v6.494c0 .101-.069.17-.171.17h-1.916c-.101 0-.168-.069-.168-.17V.355zM181.214.355c.034-.098.102-.17.221-.17h2.136c.118 0 .186.072.22.17l3.9 11.191c.033.101 0 .17-.119.17h-2.204c-.119 0-.188-.052-.221-.17l-.662-2.018h-4.035l-.644 2.018c-.034.118-.102.17-.22.17h-2.221c-.119 0-.154-.069-.119-.17L181.214.355zm2.595 7.055l-1.306-4.036h-.052l-1.305 4.036h2.663zM191.862 10.324a.206.206 0 01-.016-.287l1.288-1.476c.068-.084.17-.084.256-.017.761.612 1.797 1.188 3.016 1.188 1.205 0 1.882-.561 1.882-1.375 0-.678-.406-1.102-1.78-1.289l-.609-.083c-2.339-.324-3.645-1.425-3.645-3.458 0-2.121 1.593-3.529 4.085-3.529 1.525 0 2.951.459 3.917 1.202.101.067.118.137.033.255l-1.033 1.543c-.069.085-.154.103-.237.052-.882-.578-1.73-.882-2.68-.882-1.018 0-1.542.524-1.542 1.253 0 .663.473 1.084 1.796 1.273l.61.083c2.375.323 3.628 1.408 3.628 3.493s-1.542 3.63-4.526 3.63c-1.798.003-3.544-.712-4.443-1.576zM205.341 10.324a.206.206 0 01-.017-.287l1.288-1.476c.069-.084.171-.084.255-.017.763.612 1.797 1.188 3.017 1.188 1.204 0 1.882-.561 1.882-1.375 0-.678-.407-1.102-1.78-1.289l-.609-.083c-2.341-.324-3.645-1.425-3.645-3.458 0-2.121 1.593-3.529 4.086-3.529 1.525 0 2.95.459 3.917 1.202.102.067.119.137.035.255l-1.034 1.543c-.069.085-.154.103-.239.052-.88-.578-1.727-.882-2.678-.882-1.016 0-1.542.524-1.542 1.253 0 .663.474 1.084 1.796 1.273l.613.083c2.372.323 3.625 1.408 3.625 3.493s-1.542 3.63-4.526 3.63c-1.798.003-3.545-.712-4.444-1.576zM222.362.355c.032-.098.101-.17.22-.17h2.137c.117 0 .185.072.217.17l3.903 11.191c.032.101 0 .17-.119.17h-2.205c-.118 0-.187-.052-.223-.17l-.659-2.018h-4.035l-.645 2.018c-.034.118-.104.17-.221.17h-2.219c-.12 0-.153-.069-.12-.17L222.362.355zm2.591 7.055l-1.306-4.036h-.047l-1.307 4.036h2.66zM232.771 5.951c0-1.781.067-2.375.322-3.119.61-1.883 2.086-2.832 4.1-2.832 1.952 0 3.376.948 4.019 2.56.053.085.017.17-.085.204l-1.848.83c-.101.05-.186.017-.236-.085-.323-.745-.863-1.306-1.83-1.306-.897 0-1.476.476-1.728 1.273-.136.424-.188.83-.188 2.475s.053 2.051.188 2.477c.252.795.83 1.271 1.728 1.271.967 0 1.507-.558 1.83-1.306.051-.102.136-.136.236-.085l1.848.833c.102.031.138.116.085.201-.643 1.61-2.066 2.562-4.019 2.562-2.014 0-3.489-.951-4.1-2.833-.255-.746-.322-1.342-.322-3.12zM246.212.355c0-.098.069-.17.17-.17h2.153c.103 0 .17.072.17.17v4.323c0 .069.034.102.103.102h3.765c.066 0 .101-.033.101-.102V.355c0-.098.069-.17.17-.17h2.155c.097 0 .166.072.166.17v11.191c0 .101-.069.17-.166.17h-2.155a.162.162 0 01-.17-.17V7.104c0-.069-.034-.101-.101-.101h-3.765c-.068 0-.103.032-.103.101v4.442c0 .101-.067.17-.17.17h-2.153a.162.162 0 01-.17-.17V.355zM260.709 7.478V.355c0-.098.068-.17.17-.17h2.152c.102 0 .17.072.17.17v7.191c0 1.373.763 2.153 1.933 2.153 1.154 0 1.917-.78 1.917-2.153V.355c0-.098.068-.17.17-.17h2.15c.105 0 .172.072.172.17v7.123c0 2.863-1.831 4.425-4.409 4.425-2.594 0-4.425-1.562-4.425-4.425zM274.526 10.324c-.064-.065-.102-.187-.017-.287l1.29-1.476c.068-.084.17-.084.253-.017.766.612 1.799 1.188 3.02 1.188 1.203 0 1.883-.561 1.883-1.375 0-.678-.408-1.102-1.783-1.289l-.61-.083c-2.339-.324-3.644-1.425-3.644-3.458 0-2.121 1.594-3.529 4.084-3.529 1.526 0 2.951.459 3.92 1.202.099.067.117.137.03.255l-1.033 1.543c-.066.085-.151.103-.234.052-.884-.578-1.732-.882-2.683-.882-1.015 0-1.54.524-1.54 1.253 0 .663.475 1.084 1.799 1.273l.606.083c2.375.323 3.631 1.408 3.631 3.493s-1.545 3.63-4.528 3.63c-1.795.003-3.544-.712-4.444-1.576zM288.565.355c0-.098.067-.17.17-.17h7.394c.101 0 .17.072.17.17V2.17c0 .101-.069.167-.17.167h-4.968c-.068 0-.103.036-.103.104v2.287c0 .068.034.102.103.102h4.137c.101 0 .17.068.17.17v1.796c0 .102-.069.169-.17.169h-4.137c-.068 0-.103.036-.103.102v2.392c0 .068.034.102.103.102h4.968c.101 0 .17.068.17.17v1.813c0 .101-.069.17-.17.17h-7.394c-.103 0-.17-.069-.17-.17V.355zM304.079 11.716c-.103 0-.168-.069-.168-.17V2.508c0-.065-.036-.1-.101-.1h-2.919c-.102 0-.17-.07-.17-.167V.355c0-.098.068-.17.17-.17h8.528c.104 0 .17.072.17.17V2.24c0 .098-.066.167-.17.167h-2.915c-.068 0-.103.035-.103.1v9.039c0 .101-.069.17-.166.17h-2.156zM317.186 11.716c-.102 0-.166-.069-.166-.17V2.508c0-.065-.034-.1-.105-.1H314c-.103 0-.17-.07-.17-.167V.355c0-.098.067-.17.17-.17h8.527c.101 0 .169.072.169.17V2.24c0 .098-.068.167-.169.167h-2.915c-.069 0-.102.035-.102.1v9.039c0 .101-.068.17-.172.17h-2.152zM326.921 10.324c-.068-.065-.104-.187-.019-.287l1.29-1.476c.066-.084.168-.084.253-.017.762.612 1.795 1.188 3.02 1.188 1.201 0 1.881-.561 1.881-1.375 0-.678-.406-1.102-1.783-1.289l-.606-.083c-2.341-.324-3.647-1.425-3.647-3.458 0-2.121 1.594-3.529 4.084-3.529 1.528 0 2.951.459 3.918 1.202.103.067.121.137.036.255l-1.035 1.543c-.068.085-.151.103-.236.052-.884-.578-1.729-.882-2.683-.882-1.013 0-1.54.524-1.54 1.253 0 .663.477 1.084 1.797 1.273l.61.083c2.375.323 3.629 1.408 3.629 3.493s-1.545 3.63-4.528 3.63c-1.797.003-3.546-.712-4.441-1.576z"
      />
    </g>
    <g fill="#015E82">
      <path
        d="M161.784 20.701c0-.305.202-.508.513-.508h6.449c.306 0 .509.203.509.508v12.957c0 .204.103.306.306.306h11.279c.204 0 .308-.102.308-.306V20.701c0-.305.203-.508.508-.508h6.452c.304 0 .508.203.508.508v33.535c0 .311-.204.514-.508.514h-6.452c-.305 0-.508-.203-.508-.514V40.929c0-.207-.104-.308-.308-.308h-11.279c-.203 0-.306.101-.306.308v13.308c0 .311-.203.514-.509.514h-6.449c-.311 0-.513-.203-.513-.514V20.701zM195.232 20.701c0-.305.202-.508.507-.508h22.154c.303 0 .507.203.507.508v5.44a.482.482 0 01-.507.507h-14.887c-.204 0-.309.098-.309.301v6.865c0 .206.105.301.309.301H215.4c.307 0 .511.205.511.506v5.386c0 .31-.204.511-.511.511h-12.394c-.204 0-.309.102-.309.306v7.167c0 .197.105.297.309.297h14.887c.303 0 .507.206.507.514v5.434c0 .311-.204.514-.507.514h-22.154c-.305 0-.507-.203-.507-.514V20.701zM233.246 20.701c.097-.305.299-.508.659-.508h6.396c.356 0 .561.203.663.508l11.689 33.535c.103.311 0 .514-.356.514h-6.61c-.352 0-.558-.156-.659-.514l-1.98-6.047h-12.085l-1.933 6.047c-.105.358-.308.514-.667.514h-6.655c-.355 0-.453-.203-.355-.514l11.893-33.535zm7.767 21.137l-3.909-12.092h-.154l-3.909 12.092h7.972zM256.672 20.701c0-.305.202-.508.505-.508h6.457c.306 0 .506.203.506.508v27.083c0 .208.099.304.307.304h15.245c.305 0 .507.2.507.512v5.636c0 .311-.202.514-.507.514h-22.515c-.303 0-.505-.203-.505-.514V20.701zM287.672 54.75c-.301 0-.509-.203-.509-.514V27.153c0-.203-.102-.304-.302-.304h-8.741c-.303 0-.505-.2-.505-.509v-5.639c0-.305.202-.508.505-.508h25.565c.299 0 .505.203.505.508v5.639c0 .309-.206.509-.505.509h-8.741c-.207 0-.308.101-.308.304v27.083c0 .311-.2.514-.506.514h-6.458zM308.359 20.701c0-.305.202-.508.513-.508h6.453c.304 0 .506.203.506.508v12.957c0 .204.101.306.307.306h11.28c.202 0 .304-.102.304-.306V20.701c0-.305.206-.508.511-.508h6.451c.308 0 .512.203.512.508v33.535c0 .311-.204.514-.512.514h-6.451c-.305 0-.511-.203-.511-.514V40.929c0-.207-.102-.308-.304-.308h-11.28c-.206 0-.307.101-.307.308v13.308c0 .311-.202.514-.506.514h-6.453c-.311 0-.513-.203-.513-.514V20.701z"
      />
    </g>
    <g fill="#015E82">
      <path
        d="M159.775 82.119c0-5.337.205-7.116.968-9.352 1.827-5.64 6.248-8.487 12.296-8.487 5.845 0 10.114 2.847 12.045 7.673.152.251.047.51-.254.611l-5.541 2.49c-.304.153-.562.051-.711-.257-.963-2.233-2.591-3.912-5.486-3.912-2.694 0-4.424 1.426-5.186 3.813-.406 1.27-.558 2.486-.558 7.419 0 4.929.152 6.149.558 7.419.761 2.39 2.492 3.813 5.186 3.813 2.896 0 4.523-1.682 5.486-3.916.149-.303.407-.406.711-.257l5.541 2.491c.301.104.406.357.254.614-1.932 4.829-6.2 7.674-12.045 7.674-6.048 0-10.469-2.845-12.296-8.49-.763-2.231-.968-4.009-.968-9.346zM189.963 91.573c-.757-2.396-.962-4.319-.962-9.454s.206-7.063.962-9.453c1.782-5.588 6.558-8.385 12.606-8.385 6.046 0 10.826 2.797 12.601 8.385.762 2.39.965 4.318.965 9.453s-.203 7.059-.965 9.454c-1.775 5.588-6.554 8.384-12.601 8.384-6.048 0-10.823-2.796-12.606-8.384zm18.047-2.035c.403-1.217.555-2.901.555-7.419 0-4.524-.152-6.202-.555-7.419-.766-2.388-2.592-3.813-5.44-3.813-2.848 0-4.678 1.426-5.438 3.813-.407 1.217-.557 2.895-.557 7.419 0 4.518.149 6.202.557 7.419.76 2.39 2.59 3.813 5.438 3.813 2.847 0 4.674-1.423 5.44-3.813zM221.836 65.349c0-.31.196-.508.502-.508h6.101c.358 0 .663.153.865.508l12.19 21.749h.259V65.349c0-.31.2-.508.501-.508h5.745c.304 0 .506.199.506.508V98.89c0 .306-.202.508-.506.508h-6.046c-.406 0-.663-.156-.867-.508l-12.241-21.703h-.255V98.89c0 .306-.201.508-.507.508h-5.745c-.306 0-.502-.202-.502-.508V65.349zM255.123 65.349c0-.31.204-.508.506-.508h6.097c.355 0 .661.153.865.508l12.198 21.749h.255V65.349c0-.31.202-.508.505-.508h5.745c.304 0 .51.199.51.508V98.89c0 .306-.206.508-.51.508h-6.048c-.406 0-.663-.156-.869-.508l-12.243-21.703h-.255V98.89c0 .306-.202.508-.511.508h-5.739c-.302 0-.506-.202-.506-.508V65.349zM288.412 65.349c0-.31.204-.508.512-.508h22.152c.303 0 .518.199.518.508v5.439c0 .303-.215.508-.518.508h-14.887c-.202 0-.304.101-.304.303v6.863c0 .2.102.305.304.305h12.4c.301 0 .503.203.503.506v5.39c0 .305-.202.503-.503.503h-12.4c-.202 0-.304.107-.304.31v7.164c0 .2.102.304.304.304h14.887c.303 0 .518.202.518.51v5.438c0 .306-.215.508-.518.508h-22.152c-.308 0-.512-.202-.512-.508V65.349zM316.215 82.119c0-5.337.206-7.116.966-9.352 1.828-5.64 6.253-8.487 12.3-8.487 5.842 0 10.111 2.847 12.04 7.673.155.251.057.51-.255.611l-5.535 2.49c-.307.153-.554.051-.707-.257-.971-2.233-2.596-3.912-5.493-3.912-2.692 0-4.417 1.426-5.181 3.813-.412 1.27-.559 2.486-.559 7.419 0 4.929.146 6.149.559 7.419.764 2.39 2.488 3.813 5.181 3.813 2.897 0 4.522-1.682 5.493-3.916.153-.303.4-.406.707-.257l5.535 2.491c.312.104.41.357.255.614-1.929 4.829-6.198 7.674-12.04 7.674-6.047 0-10.472-2.845-12.3-8.49-.76-2.231-.966-4.009-.966-9.346zM353.367 99.397c-.304 0-.514-.202-.514-.508V71.801c0-.202-.098-.303-.304-.303h-8.739c-.301 0-.505-.202-.505-.51v-5.639c0-.31.204-.508.505-.508h25.569c.299 0 .505.199.505.508v5.639c0 .308-.206.51-.505.51h-8.747c-.198 0-.304.101-.304.303V98.89c0 .306-.202.508-.505.508h-6.456zM373.192 91.573c-.763-2.396-.969-4.319-.969-9.454s.206-7.063.969-9.453c1.781-5.588 6.56-8.385 12.603-8.385 6.053 0 10.825 2.797 12.604 8.385.766 2.39.962 4.318.962 9.453s-.196 7.059-.962 9.454c-1.779 5.588-6.552 8.384-12.604 8.384-6.043 0-10.821-2.796-12.603-8.384zm18.044-2.035c.406-1.217.557-2.901.557-7.419 0-4.524-.15-6.202-.557-7.419-.766-2.388-2.594-3.813-5.441-3.813-2.845 0-4.672 1.426-5.433 3.813-.41 1.217-.565 2.895-.565 7.419 0 4.518.155 6.202.565 7.419.761 2.39 2.588 3.813 5.433 3.813 2.848 0 4.676-1.423 5.441-3.813zM424.174 99.397c-.459 0-.614-.156-.766-.508l-5.946-12.655h-4.623c-.208 0-.305.105-.305.308V98.89c0 .306-.202.508-.512.508h-6.455c-.301 0-.507-.202-.507-.508V65.349c0-.31.206-.508.507-.508h13.773c7.069 0 11.736 4.422 11.736 10.72 0 4.424-2.33 7.933-6.147 9.604l6.811 13.623c.152.308 0 .609-.357.609h-7.209zm-.569-23.836c0-2.589-1.829-4.265-4.676-4.265h-6.091c-.208 0-.305.101-.305.303v7.981c0 .202.097.299.305.299h6.091c2.847 0 4.676-1.674 4.676-4.318z"
      />
    </g>
    <path fill="#6D6E71" d="M161.233 107.765h270.132v.837H161.233z" />
    <g fill="#C56D29">
      <path
        d="M138.938 18.784V1.728H83.195v10.447a102.909 102.909 0 0116.422-1.326c14.127-.001 27.465 2.867 39.321 7.935zM56.236 20.61V1.728H.493v135h30.743c-12.82-13.306-20.542-30.409-20.542-49.075.001-28.806 18.374-53.898 45.542-67.043z"
      />
    </g>
    <path
      fill="#015E82"
      d="M114.197 20.668c-10.905 0-21.348 1.704-31.002 4.809v28.141H56.236V39.254C37.289 53.341 25.274 74.19 25.274 97.477c0 14.345 4.562 27.766 12.493 39.251h18.469V89.293h26.959v47.435h55.743V23.695a101.78 101.78 0 00-24.741-3.027z"
    />
    <g fill="#C56D29">
      <path
        d="M272.84 124.194h-3.027l-1.985 12.206h-4.495l2.009-12.206h-1.825l.428-3.587h1.988c.295-2.36.986-4.012 2.071-4.954 1.086-.941 2.628-1.413 4.626-1.413.621 0 1.259.053 1.911.155l-.26 3.649a9.48 9.48 0 00-1.377-.108c-.683 0-1.243.16-1.682.481s-.714 1.051-.826 2.189h3.028l-.584 3.588zM281.521 120.219c2.02 0 3.655.682 4.905 2.043s1.875 3.145 1.875 5.35c0 2.516-.758 4.664-2.273 6.444-1.515 1.78-3.416 2.671-5.701 2.671-1.97 0-3.597-.673-4.883-2.019s-1.929-3.044-1.929-5.094c0-2.702.74-4.943 2.22-6.724 1.48-1.781 3.409-2.671 5.786-2.671zm-.02 3.059c-1.282 0-2.168.807-2.66 2.419s-.738 3.271-.738 4.978c0 1.995.779 2.992 2.337 2.992 1.271 0 2.143-.876 2.613-2.628.472-1.752.708-3.342.708-4.768 0-1.995-.754-2.993-2.26-2.993zM300.365 124.955c-.836 0-1.525.127-2.065.381s-1.037.715-1.491 1.382c-.454.668-.785 1.416-.994 2.244s-.456 2.169-.739 4.021l-.563 3.417h-4.682l2.6-15.793h4.339l-.579 3.634c.457-1.076.914-1.896 1.372-2.461.457-.564.927-.938 1.41-1.118.482-.182 1.105-.272 1.867-.272l-.475 4.565zM310.182 115.203h9.725c1.743 0 3.053.218 3.93.652s1.601 1.055 2.172 1.861c.57.808.855 1.79.855 2.948 0 2.349-1.253 3.916-3.761 4.702 1.447.331 2.532.989 3.257 1.974.724.984 1.085 2.057 1.085 3.217 0 1.585-.591 2.955-1.773 4.11s-3.104 1.732-5.765 1.732h-9.725v-21.196zm4.878 3.743v4.643h3.7c1.355 0 2.209-.271 2.562-.815.352-.543.527-1.063.527-1.561 0-.538-.146-1.001-.436-1.39-.291-.389-.609-.631-.956-.729s-1.029-.147-2.049-.147h-3.348zm0 8.416v5.109h3.754c1.281 0 2.187-.228 2.716-.684.528-.455.793-1.092.793-1.91 0-.683-.254-1.273-.763-1.77-.509-.497-1.354-.746-2.533-.746h-3.967zM343.562 120.716V136.4h-4.22v-2.671c-.795 1.998-2.314 2.997-4.557 2.997-1.162 0-2.055-.22-2.676-.66-.622-.439-1.068-1.04-1.338-1.801-.271-.762-.405-1.861-.405-3.301v-10.249h4.419v10.249c0 1.408.57 2.112 1.713 2.112.581 0 1.085-.168 1.514-.505.428-.336.7-.696.817-1.079s.176-1.04.176-1.972v-8.806h4.557zM358.883 124.505l-3.318.901c-.388-1.419-1.392-2.128-3.012-2.128-1.529 0-2.294.472-2.294 1.416 0 .373.14.672.42.895s1.012.411 2.194.565c1.764.236 3.068.51 3.915.82a4.043 4.043 0 012.011 1.568c.494.735.741 1.641.741 2.718 0 1.614-.604 2.93-1.812 3.944s-2.897 1.521-5.069 1.521c-3.935 0-6.284-1.548-7.049-4.644l3.838-.574c.316 1.408 1.458 2.112 3.426 2.112.754 0 1.391-.138 1.911-.413.52-.274.779-.646.779-1.112.001-.727-.575-1.157-1.728-1.29-3.119-.391-5.171-.997-6.154-1.82-.984-.823-1.476-1.97-1.476-3.439 0-1.491.57-2.723 1.713-3.696 1.141-.973 2.741-1.46 4.801-1.46 1.631 0 2.936.326 3.914.979s1.729 1.698 2.249 3.137zM366.696 114.769v4.628h-4.557v-4.628h4.557zm0 5.947V136.4h-4.557v-15.685h4.557zM383.867 136.4h-4.557v-8.805c0-1.066-.041-1.796-.122-2.189a1.771 1.771 0 00-.597-1.002c-.315-.274-.713-.411-1.192-.411-1.601 0-2.4 1.2-2.4 3.603v8.805h-4.557v-15.685h4.235v2.656c.703-1.264 1.396-2.076 2.079-2.438a4.67 4.67 0 012.218-.544c1.468 0 2.65.401 3.547 1.204.897.802 1.346 2.378 1.346 4.729V136.4zM401.497 129.335h-9.938c-.011.279-.016.522-.016.729 0 1.118.293 1.962.88 2.531a2.911 2.911 0 002.102.854c1.52 0 2.432-.823 2.737-2.47l4.129.311c-1.152 3.624-3.492 5.436-7.019 5.436-1.539 0-2.847-.313-3.922-.939-1.076-.626-1.963-1.54-2.661-2.741-.698-1.2-1.047-2.64-1.047-4.316 0-2.495.7-4.509 2.103-6.041 1.401-1.532 3.203-2.299 5.405-2.299 1.987 0 3.692.712 5.114 2.136s2.133 3.693 2.133 6.809zm-9.954-2.687h5.489c-.143-2.153-1.015-3.23-2.614-3.23-1.713 0-2.671 1.077-2.875 3.23zM415.932 124.505l-3.318.901c-.388-1.419-1.392-2.128-3.012-2.128-1.529 0-2.294.472-2.294 1.416 0 .373.14.672.42.895s1.012.411 2.194.565c1.764.236 3.068.51 3.915.82a4.043 4.043 0 012.011 1.568c.494.735.741 1.641.741 2.718 0 1.614-.604 2.93-1.812 3.944s-2.897 1.521-5.069 1.521c-3.935 0-6.284-1.548-7.049-4.644l3.838-.574c.316 1.408 1.458 2.112 3.426 2.112.754 0 1.391-.138 1.911-.413.52-.274.779-.646.779-1.112.001-.727-.575-1.157-1.728-1.29-3.119-.391-5.171-.997-6.154-1.82-.984-.823-1.476-1.97-1.476-3.439 0-1.491.57-2.723 1.713-3.696 1.141-.973 2.741-1.46 4.801-1.46 1.631 0 2.936.326 3.914.979s1.729 1.698 2.249 3.137zM430.748 124.505l-3.318.901c-.388-1.419-1.392-2.128-3.012-2.128-1.529 0-2.294.472-2.294 1.416 0 .373.14.672.42.895s1.012.411 2.194.565c1.764.236 3.068.51 3.915.82a4.043 4.043 0 012.011 1.568c.494.735.741 1.641.741 2.718 0 1.614-.604 2.93-1.812 3.944s-2.897 1.521-5.069 1.521c-3.935 0-6.284-1.548-7.049-4.644l3.838-.574c.316 1.408 1.458 2.112 3.426 2.112.754 0 1.391-.138 1.911-.413.52-.274.779-.646.779-1.112.001-.727-.575-1.157-1.728-1.29-3.119-.391-5.171-.997-6.154-1.82-.984-.823-1.476-1.97-1.476-3.439 0-1.491.57-2.723 1.713-3.696 1.141-.973 2.741-1.46 4.801-1.46 1.631 0 2.936.326 3.914.979s1.73 1.698 2.249 3.137z"
      />
    </g>
  </g>
</svg>
