<svg
  width="267"
  height="160"
  viewBox="0 0 267 160"
  fill="none"
  xmlns="http://www.w3.org/2000/svg"
>
  <style>
    path {
      fill: hsl(83, 37%, 36%);
    }

    @media (prefers-color-scheme: dark) {
      path {
        fill: hsl(83, 20%, 87%);
      }
    }
  </style>
  <path
    d="M266.747 24.8228V2.73239C266.753 2.37268 266.685 2.01561 266.548 1.68294C266.411 1.35028 266.207 1.04898 265.95 0.797409C265.699 0.540306 265.398 0.337072 265.066 0.200109C264.733 0.0631452 264.376 -0.00467515 264.017 0.000786097H158.774C158.414 -0.00556035 158.056 0.0618374 157.723 0.198835C157.389 0.335832 157.088 0.539532 156.836 0.797409C156.578 1.04866 156.375 1.3499 156.238 1.68264C156.101 2.01538 156.033 2.3726 156.039 2.73239V156.675C156.037 157.035 156.106 157.392 156.242 157.724C156.379 158.057 156.58 158.359 156.835 158.614C157.089 158.868 157.392 159.069 157.724 159.206C158.057 159.343 158.414 159.412 158.774 159.409H264.017C264.376 159.411 264.733 159.342 265.066 159.205C265.398 159.069 265.7 158.867 265.955 158.613C266.209 158.359 266.41 158.056 266.546 157.724C266.683 157.391 266.752 157.035 266.749 156.675V134.587C266.752 134.228 266.683 133.871 266.546 133.539C266.41 133.206 266.209 132.904 265.955 132.649C265.7 132.395 265.398 132.194 265.066 132.057C264.733 131.92 264.376 131.851 264.017 131.853H189.311C189.157 131.874 189.001 131.859 188.854 131.81C188.707 131.76 188.573 131.678 188.464 131.568C188.354 131.459 188.271 131.325 188.222 131.178C188.173 131.031 188.158 130.875 188.179 130.722V93.8326C188.158 93.6791 188.173 93.5228 188.222 93.3759C188.271 93.2291 188.354 93.0957 188.464 92.9861C188.573 92.8765 188.707 92.7938 188.854 92.7443C189.001 92.6949 189.157 92.6801 189.311 92.701H238.286C238.646 92.7034 239.003 92.6344 239.336 92.4978C239.668 92.3613 239.971 92.16 240.225 91.9057C240.48 91.6513 240.681 91.349 240.818 91.0162C240.954 90.6834 241.023 90.3268 241.021 89.9672V67.879C241.023 67.5193 240.954 67.1627 240.818 66.8299C240.681 66.4971 240.48 66.1948 240.225 65.9405C239.971 65.6861 239.668 65.4848 239.336 65.3483C239.003 65.2118 238.646 65.1427 238.286 65.1451H189.297C189.143 65.1661 188.987 65.1513 188.84 65.1018C188.693 65.0523 188.56 64.9696 188.45 64.86C188.341 64.7505 188.258 64.6171 188.208 64.4702C188.159 64.3234 188.144 64.1671 188.165 64.0135V28.7086C188.145 28.5552 188.16 28.3991 188.209 28.2525C188.259 28.1059 188.342 27.9726 188.451 27.8632C188.561 27.7537 188.694 27.671 188.841 27.6214C188.987 27.5717 189.144 27.5566 189.297 27.5771H264.003C264.363 27.5792 264.719 27.51 265.051 27.3734C265.384 27.2369 265.686 27.0358 265.94 26.7817C266.194 26.5276 266.395 26.2257 266.532 25.8933C266.669 25.5609 266.738 25.2048 266.736 24.8455L266.747 24.8228ZM102.509 1.82261L68.1121 54.8818C67.6594 55.787 67.2066 55.787 66.7538 54.8818L32.5768 1.82261C32.2582 1.26107 31.7934 0.796254 31.2318 0.47749C30.6702 0.158726 30.0328 -0.00209262 29.3871 0.0121018H2.73506C2.37478 0.00575532 2.01702 0.0731531 1.68377 0.21015C1.35051 0.347148 1.04884 0.550848 0.79725 0.808725C0.539574 1.05997 0.335956 1.36121 0.198926 1.69395C0.0618964 2.02669 -0.00566645 2.38392 0.000371823 2.7437V156.675C-0.00203493 157.035 0.067045 157.392 0.203624 157.724C0.340204 158.057 0.541551 158.359 0.795972 158.614C1.05039 158.868 1.35283 159.069 1.6857 159.206C2.01858 159.343 2.37526 159.412 2.73506 159.409H29.3871C29.7467 159.411 30.1032 159.342 30.4358 159.205C30.7684 159.069 31.0705 158.867 31.3247 158.613C31.5789 158.359 31.78 158.056 31.9165 157.724C32.0529 157.391 32.122 157.035 32.1195 156.675V56.4773C32.1195 55.8708 32.269 55.529 32.5723 55.4521C32.8757 55.3752 33.1767 55.5653 33.4778 56.0201L57.6238 93.8145C57.9413 94.377 58.4059 94.8427 58.9677 95.1616C59.5296 95.4805 60.1676 95.6407 60.8136 95.625H74.2539C74.8994 95.64 75.5368 95.4795 76.0982 95.1606C76.6596 94.8418 77.1238 94.3765 77.4413 93.8145L101.59 56.0201C101.891 55.5675 102.193 55.3412 102.495 55.3412C102.798 55.3412 102.948 55.6467 102.948 56.2465V156.675C102.945 157.035 103.015 157.392 103.151 157.724C103.288 158.057 103.489 158.359 103.743 158.614C103.998 158.868 104.3 159.069 104.633 159.206C104.966 159.343 105.323 159.412 105.683 159.409H132.335C132.694 159.411 133.051 159.342 133.383 159.205C133.716 159.069 134.018 158.867 134.272 158.613C134.526 158.359 134.728 158.056 134.864 157.724C135 157.391 135.069 157.035 135.067 156.675V2.73239C135.073 2.37268 135.005 2.01561 134.868 1.68294C134.731 1.35028 134.527 1.04898 134.27 0.797409C134.021 0.541973 133.722 0.339706 133.392 0.202797C133.062 0.0658874 132.708 -0.0028297 132.35 0.000786097H105.698C105.052 -0.0127828 104.413 0.149532 103.851 0.470398C103.29 0.791265 102.826 1.25864 102.509 1.82261"
  />
</svg>
