<svg fill="none" viewBox="0 0 20 20">
  <circle cx="10" cy="10" r="10" fill="#005689" />
  <path
    d="M12 5.202c0 .204-.036.388-.107.55-.072.162-.17.304-.293.424a1.233 1.233 0 01-.429.268 1.448 1.448 0 01-.528.094c-.181 0-.35-.029-.507-.087a1.345 1.345 0 01-.4-.251 1.307 1.307 0 01-.265-.385 1.22 1.22 0 01-.092-.48c0-.204.033-.387.1-.55a1.249 1.249 0 01.721-.692c.167-.062.348-.093.543-.093.18 0 .348.03.5.094.152.057.283.141.393.251.114.105.202.23.264.378.067.146.1.306.1.479zm-.743 10.57a2.978 2.978 0 01-1.05.204 3.395 3.395 0 01-.4.024 2.15 2.15 0 01-.821-.142 1.477 1.477 0 01-.557-.377 1.622 1.622 0 01-.329-.59c-.067-.23-.1-.482-.1-.754 0-.115.005-.244.014-.385a18.336 18.336 0 01.115-.912c.028-.162.057-.317.085-.463.02-.09.05-.252.093-.488.048-.24.1-.516.157-.825l.193-.974c.067-.346.129-.673.186-.982.062-.31.114-.582.157-.818.048-.24.08-.406.1-.495h2.286l-.872 4.527c-.038.183-.078.39-.121.62a3.207 3.207 0 00-.064.59c0 .199.057.338.171.416a.677.677 0 00.393.118c.124 0 .247-.013.371-.039.129-.031.245-.07.35-.118-.062.314-.121.626-.178.935-.057.304-.117.613-.179.928z"
    fill="#fff"
  />
</svg>
